<?xml version="1.0" standalone="no"?>
<!DOCTYPE svg PUBLIC "-//W3C//DTD SVG 20010904//EN"
 "http://www.w3.org/TR/2001/REC-SVG-20010904/DTD/svg10.dtd">
<svg version="1.0" xmlns="http://www.w3.org/2000/svg"
 width="512.000000pt" height="512.000000pt" viewBox="0 0 512.000000 512.000000"
 preserveAspectRatio="xMidYMid meet">

<g transform="translate(0.000000,512.000000) scale(0.100000,-0.100000)"
fill="#000000" stroke="none">
<path d="M2325 5110 c-192 -21 -238 -32 -267 -61 -42 -42 -39 -100 7 -146 40
-40 31 -39 225 -12 112 16 420 16 542 0 719 -92 1341 -487 1718 -1091 54 -86
190 -357 190 -379 0 -8 -109 -11 -410 -11 -280 0 -417 -4 -434 -11 -60 -28
-71 -122 -20 -170 l26 -24 491 0 492 0 63 34 c70 38 100 69 140 145 l27 51 0
492 0 491 -24 26 c-33 35 -85 44 -127 21 -18 -10 -36 -25 -41 -34 -4 -9 -10
-200 -13 -426 l-5 -410 -58 114 c-251 492 -639 882 -1119 1127 -264 134 -510
213 -808 259 -123 19 -478 28 -595 15z"/>
<path d="M1530 4903 c-100 -37 -397 -208 -437 -252 -43 -46 -25 -130 34 -160
43 -22 77 -12 183 54 58 36 151 88 207 116 114 56 143 84 143 138 0 46 -23 79
-66 97 -36 15 -41 15 -64 7z"/>
<path d="M610 4193 c-28 -10 -62 -48 -130 -143 -99 -137 -180 -279 -180 -313
0 -62 44 -107 105 -107 53 0 74 19 133 120 27 47 76 121 108 165 95 133 104
147 104 172 0 70 -78 129 -140 106z"/>
<path d="M2465 3744 c-84 -21 -158 -57 -432 -211 -171 -97 -334 -195 -361
-219 -64 -56 -118 -138 -151 -228 -26 -71 -26 -72 -29 -441 -4 -417 1 -467 62
-590 63 -128 114 -168 474 -373 174 -99 340 -188 367 -198 64 -22 205 -30 276
-15 30 6 83 25 118 41 106 51 553 301 619 347 66 47 124 117 165 198 49 100
52 132 52 550 0 432 -1 443 -68 569 -62 118 -122 163 -468 357 -173 97 -336
184 -364 194 -49 17 -219 29 -260 19z m171 -217 c45 -12 597 -319 631 -351 9
-8 -71 -59 -338 -211 -193 -110 -358 -200 -368 -200 -16 0 -720 395 -720 405
0 3 37 26 82 51 45 26 180 103 300 172 257 148 302 163 413 134z m-499 -774
l312 -178 1 -439 c0 -385 -2 -437 -15 -432 -60 22 -598 335 -628 364 -21 20
-51 60 -65 87 l-27 50 -3 379 c-2 209 -1 385 2 393 4 10 18 7 58 -17 29 -16
193 -110 365 -207z m1273 -147 c0 -408 -3 -431 -58 -507 -48 -65 -61 -73 -620
-375 l-62 -34 2 442 3 442 360 207 c198 113 363 204 368 202 4 -2 7 -172 7
-377z"/>
<path d="M95 3167 c-27 -27 -34 -45 -49 -122 -17 -95 -30 -201 -41 -325 -6
-68 -4 -78 17 -110 29 -44 81 -60 128 -40 50 21 61 48 71 172 5 62 18 163 29
225 27 151 26 159 -14 199 -47 47 -95 47 -141 1z"/>
<path d="M4947 2539 c-32 -24 -43 -65 -51 -184 -3 -49 -16 -143 -27 -208 -12
-65 -18 -129 -15 -143 26 -101 178 -98 205 4 18 66 40 215 51 339 9 106 9 126
-5 152 -30 58 -110 79 -158 40z"/>
<path d="M244 1911 c-48 -12 -133 -62 -160 -94 -14 -17 -37 -53 -52 -81 l-27
-51 0 -492 0 -491 24 -26 c30 -32 81 -43 122 -26 58 25 59 29 59 477 l1 408
67 -130 c37 -71 88 -161 112 -200 130 -208 340 -448 530 -607 204 -172 513
-351 765 -443 393 -144 867 -190 1280 -123 90 15 125 45 125 108 0 34 -6 48
-34 76 -39 39 -35 39 -186 18 -159 -22 -459 -22 -615 0 -679 96 -1273 468
-1651 1033 -64 95 -224 403 -224 430 0 11 74 13 410 13 280 0 417 4 434 11 60
28 71 122 20 170 l-26 24 -471 2 c-260 1 -486 -2 -503 -6z"/>
<path d="M4654 1472 c-12 -9 -47 -60 -78 -112 -31 -53 -88 -138 -126 -190 -75
-101 -84 -133 -56 -189 27 -51 103 -67 150 -30 65 51 276 381 276 432 0 62
-44 107 -105 107 -23 0 -49 -8 -61 -18z"/>
<path d="M3811 575 c-58 -36 -151 -88 -208 -117 -57 -28 -113 -62 -124 -76
-42 -55 -14 -139 56 -162 30 -10 42 -8 102 19 159 69 384 208 401 246 35 77
-13 155 -95 155 -17 0 -68 -25 -132 -65z"/>
</g>
</svg>
