<?xml version="1.0" standalone="no"?>
<!DOCTYPE svg PUBLIC "-//W3C//DTD SVG 20010904//EN"
 "http://www.w3.org/TR/2001/REC-SVG-20010904/DTD/svg10.dtd">
<svg version="1.0" xmlns="http://www.w3.org/2000/svg"
 width="512.000000pt" height="512.000000pt" viewBox="0 0 512.000000 512.000000"
 preserveAspectRatio="xMidYMid meet">

<g transform="translate(0.000000,512.000000) scale(0.100000,-0.100000)"
fill="#000000" stroke="none">
<path d="M3175 5089 c-88 -35 -565 -275 -694 -349 -247 -142 -478 -294 -635
-418 -67 -54 -70 -55 -157 -64 -189 -19 -388 -98 -559 -221 -88 -64 -229 -211
-252 -265 -26 -57 -28 -150 -6 -203 23 -53 72 -104 126 -130 43 -22 62 -24
242 -27 l195 -3 82 -82 83 -81 -154 -156 c-94 -95 -157 -166 -161 -182 -17
-69 30 -128 103 -128 45 0 46 1 204 157 l158 157 85 -84 85 -85 0 -180 c0
-201 9 -244 60 -307 67 -81 201 -112 297 -69 55 26 192 157 265 255 118 159
208 387 224 570 7 70 8 73 89 181 233 311 476 727 687 1175 71 152 72 157 72
235 1 61 -4 91 -21 127 -31 67 -96 133 -166 168 -51 25 -72 30 -131 29 -47 0
-88 -7 -121 -20z m170 -203 c41 -17 55 -42 55 -97 0 -33 -24 -90 -114 -274
-218 -447 -387 -728 -633 -1053 -90 -118 -93 -125 -93 -175 0 -135 -57 -326
-136 -459 -53 -88 -218 -268 -246 -268 -9 0 -24 7 -32 16 -14 13 -16 48 -16
227 l0 211 -292 294 c-161 161 -302 299 -313 305 -13 8 -96 14 -235 17 l-215
5 -3 25 c-7 56 186 225 342 300 108 51 211 79 316 86 47 3 97 9 112 14 14 5
82 51 150 103 293 224 594 404 1030 617 268 130 266 129 323 106z"/>
<path d="M2260 4034 c-167 -72 -165 -318 2 -389 137 -57 297 46 298 193 1 150
-161 256 -300 196z"/>
<path d="M4464 2546 c-70 -16 -166 -62 -214 -103 -19 -15 -216 -228 -439 -473
-223 -245 -410 -446 -415 -448 -5 -2 -18 21 -30 50 -60 147 -188 266 -344 320
l-67 23 -1165 0 c-1308 0 -1212 5 -1375 -75 -146 -72 -263 -189 -335 -335 -77
-156 -75 -134 -75 -827 l0 -616 24 -26 c49 -52 145 -39 170 23 7 17 12 234 14
616 2 537 4 595 21 645 60 183 190 311 371 367 57 17 121 18 1190 18 l1130 0
65 -31 c197 -94 268 -325 155 -504 -34 -54 -110 -117 -169 -138 -36 -14 -252
-44 -731 -101 -742 -89 -717 -84 -743 -153 -19 -48 3 -101 51 -124 33 -16 57
-14 553 45 935 111 885 103 990 155 116 58 204 147 260 263 34 71 82 127 535
624 467 512 500 547 555 571 80 35 145 42 216 23 149 -39 241 -159 241 -312 0
-129 13 -113 -783 -1005 -393 -441 -727 -817 -742 -836 -37 -46 -38 -99 -3
-140 30 -36 66 -47 109 -32 25 8 206 204 777 846 409 459 758 858 776 886 55
87 78 169 78 283 0 119 -25 202 -86 295 -98 145 -242 226 -419 235 -52 3 -108
-1 -146 -9z"/>
</g>
</svg>
