<?xml version="1.0" standalone="no"?>
<!DOCTYPE svg PUBLIC "-//W3C//DTD SVG 20010904//EN"
 "http://www.w3.org/TR/2001/REC-SVG-20010904/DTD/svg10.dtd">
<svg version="1.0" xmlns="http://www.w3.org/2000/svg"
 width="512.000000pt" height="512.000000pt" viewBox="0 0 512.000000 512.000000"
 preserveAspectRatio="xMidYMid meet">

<g transform="translate(0.000000,512.000000) scale(0.100000,-0.100000)"
fill="#000000" stroke="none">
<path d="M4365 5109 c-710 -58 -1322 -301 -1883 -748 -196 -156 -449 -407
-618 -613 -38 -46 -40 -47 -97 -47 -91 -1 -241 -20 -374 -47 -576 -115 -1124
-483 -1324 -889 -56 -115 -72 -190 -67 -305 13 -239 144 -426 361 -513 49 -20
76 -21 472 -27 448 -7 484 -11 628 -63 191 -70 328 -207 399 -400 49 -134 58
-232 58 -617 0 -382 5 -425 62 -534 46 -88 155 -192 248 -238 235 -116 453
-82 706 108 392 295 683 842 749 1411 8 70 15 153 15 183 0 54 1 56 48 93 187
152 459 427 627 637 297 370 523 825 639 1285 80 319 125 767 92 909 -36 151
-141 289 -274 359 -123 65 -220 76 -467 56z m290 -214 c120 -31 214 -126 241
-242 11 -46 11 -89 3 -208 -46 -703 -276 -1293 -718 -1844 -94 -119 -351 -383
-491 -506 -322 -283 -661 -512 -1067 -722 -153 -79 -476 -233 -489 -233 -2 0
-4 22 -4 49 0 26 -7 88 -15 137 -57 327 -218 558 -483 693 -103 53 -316 104
-470 113 l-43 3 125 250 c265 531 507 906 826 1275 109 127 344 363 460 462
566 484 1208 740 1960 781 30 2 66 4 80 5 14 1 53 -5 85 -13z m-3035 -1457
c-210 -281 -491 -773 -686 -1201 l-49 -109 -210 4 c-249 4 -281 13 -364 104
-68 74 -94 145 -95 254 -1 77 3 92 34 160 140 301 513 588 956 735 99 33 297
78 384 88 19 2 41 5 48 5 8 1 0 -16 -18 -40z m1855 -1835 c-83 -603 -411
-1146 -812 -1345 -75 -37 -88 -41 -160 -40 -149 0 -269 71 -333 196 l-35 69
-3 211 -3 211 103 44 c162 69 568 271 733 366 146 83 489 307 500 326 13 20
16 7 10 -38z"/>
<path d="M3205 3830 c-107 -22 -225 -89 -296 -168 -61 -68 -117 -191 -129
-283 -34 -245 107 -481 339 -570 226 -86 495 -1 627 198 144 217 117 492 -65
674 -127 127 -305 183 -476 149z m242 -240 c237 -116 236 -453 -3 -571 -41
-20 -64 -24 -139 -24 -75 0 -98 4 -135 24 -109 56 -171 150 -178 271 -5 96 21
170 82 234 104 107 239 131 373 66z"/>
<path d="M680 1269 c-125 -13 -254 -79 -330 -168 -113 -132 -328 -634 -346
-810 -18 -168 124 -307 294 -287 132 16 546 180 710 283 104 65 132 90 180
163 164 248 97 581 -151 741 -100 65 -222 91 -357 78z m143 -214 c244 -64 325
-361 146 -535 -72 -70 -337 -194 -587 -274 -118 -38 -144 -39 -163 -5 -28 53
173 560 280 706 34 47 103 91 170 109 62 17 87 17 154 -1z"/>
</g>
</svg>
