<?xml version="1.0" standalone="no"?>
<!DOCTYPE svg PUBLIC "-//W3C//DTD SVG 20010904//EN"
 "http://www.w3.org/TR/2001/REC-SVG-20010904/DTD/svg10.dtd">
<svg version="1.0" xmlns="http://www.w3.org/2000/svg"
 width="512.000000pt" height="512.000000pt" viewBox="0 0 512.000000 512.000000"
 preserveAspectRatio="xMidYMid meet">

<g transform="translate(0.000000,512.000000) scale(0.100000,-0.100000)"
fill="#000000" stroke="none">
<path d="M2420 5114 c-208 -27 -407 -101 -580 -217 -96 -64 -273 -241 -337
-337 -146 -218 -209 -420 -220 -697 l-6 -162 -71 -17 c-219 -52 -476 -146
-652 -238 -155 -81 -240 -142 -350 -251 -84 -84 -107 -114 -141 -185 -92 -188
-82 -354 33 -532 243 -378 958 -662 1894 -753 229 -23 691 -30 925 -16 422 26
776 83 1100 176 671 193 1073 501 1102 847 8 92 -11 177 -60 278 -34 71 -57
101 -141 185 -118 118 -209 181 -401 275 -161 80 -333 143 -532 197 l-140 38
-6 160 c-14 360 -130 631 -376 876 -185 185 -380 293 -631 350 -83 19 -331 33
-410 23z m250 -214 c121 -14 231 -45 336 -94 236 -112 408 -283 519 -519 76
-160 105 -312 105 -548 l0 -126 -58 -31 c-115 -62 -304 -114 -537 -149 -98
-14 -184 -18 -475 -18 -291 0 -377 4 -475 18 -233 35 -422 87 -537 149 l-58
31 0 126 c0 236 29 388 105 548 176 372 538 609 950 622 22 0 78 -4 125 -9z
m-1323 -1444 c294 -209 956 -310 1608 -245 352 35 646 123 818 245 l48 34 96
-26 c503 -137 853 -343 955 -561 66 -140 33 -266 -105 -404 -223 -223 -696
-414 -1262 -509 -658 -111 -1406 -102 -2035 26 -374 75 -749 215 -965 359 -46
30 -114 86 -152 124 -138 138 -171 264 -105 404 83 179 340 355 703 482 93 33
322 103 341 104 5 1 29 -14 55 -33z"/>
<path d="M1212 2967 c-154 -56 -192 -261 -67 -365 138 -113 345 -16 345 163 0
145 -144 250 -278 202z"/>
<path d="M3772 2967 c-154 -56 -192 -261 -67 -365 138 -113 345 -16 345 163 0
145 -144 250 -278 202z"/>
<path d="M2444 2728 c-172 -117 -91 -388 116 -388 207 0 288 271 116 388 -43
28 -56 32 -116 32 -60 0 -73 -4 -116 -32z"/>
<path d="M4014 1485 c-41 -17 -64 -51 -64 -93 0 -47 533 -1327 568 -1365 20
-21 35 -27 70 -27 68 0 110 49 103 122 -2 16 -528 1285 -551 1327 -20 39 -80
56 -126 36z"/>
<path d="M1000 1463 c-23 -22 -86 -163 -299 -676 -149 -357 -271 -656 -272
-665 -4 -44 3 -66 30 -93 41 -41 106 -41 143 -1 37 39 568 1318 568 1367 0 85
-105 127 -170 68z"/>
</g>
</svg>
