<?xml version="1.0" encoding="UTF-8" standalone="no"?>
<svg
   version="1.0"
   width="512.000000pt"
   height="512.000000pt"
   viewBox="0 0 512.000000 512.000000"
   preserveAspectRatio="xMidYMid meet"
   id="svg1750"
   sodipodi:docname="trash.svg"
   inkscape:version="1.1.2 (b8e25be833, 2022-02-05)"
   xmlns:inkscape="http://www.inkscape.org/namespaces/inkscape"
   xmlns:sodipodi="http://sodipodi.sourceforge.net/DTD/sodipodi-0.dtd"
   xmlns="http://www.w3.org/2000/svg"
   xmlns:svg="http://www.w3.org/2000/svg">
  <defs
     id="defs1754">
    <filter
       style="color-interpolation-filters:sRGB;"
       inkscape:label="Invert"
       id="filter1758"
       x="0"
       y="0"
       width="1"
       height="1">
      <feColorMatrix
         values="-1 0 0 0 1 0 -1 0 0 1 0 0 -1 0 1 -0.21 -0.72 -0.07 2 0 "
         result="color2"
         id="feColorMatrix1756" />
    </filter>
  </defs>
  <sodipodi:namedview
     id="namedview1752"
     pagecolor="#ffffff"
     bordercolor="#666666"
     borderopacity="1.0"
     inkscape:pageshadow="2"
     inkscape:pageopacity="0.0"
     inkscape:pagecheckerboard="0"
     inkscape:document-units="pt"
     showgrid="false"
     inkscape:zoom="1.2055664"
     inkscape:cx="340.91859"
     inkscape:cy="341.74808"
     inkscape:window-width="1920"
     inkscape:window-height="1009"
     inkscape:window-x="-8"
     inkscape:window-y="-8"
     inkscape:window-maximized="1"
     inkscape:current-layer="svg1750" />
  <g
     transform="translate(0.000000,512.000000) scale(0.100000,-0.100000)"
     fill="#000000"
     stroke="none"
     id="g1748"
     style="filter:url(#filter1758)">
    <path
       d="M2420 5114 c-208 -27 -407 -101 -580 -217 -96 -64 -273 -241 -337 -337 -146 -218 -209 -420 -220 -697 l-6 -162 -71 -17 c-219 -52 -476 -146 -652 -238 -155 -81 -240 -142 -350 -251 -84 -84 -107 -114 -141 -185 -92 -188 -82 -354 33 -532 243 -378 958 -662 1894 -753 229 -23 691 -30 925 -16 422 26 776 83 1100 176 671 193 1073 501 1102 847 8 92 -11 177 -60 278 -34 71 -57 101 -141 185 -118 118 -209 181 -401 275 -161 80 -333 143 -532 197 l-140 38 -6 160 c-14 360 -130 631 -376 876 -185 185 -380 293 -631 350 -83 19 -331 33 -410 23z m250 -214 c121 -14 231 -45 336 -94 236 -112 408 -283 519 -519 76 -160 105 -312 105 -548 l0 -126 -58 -31 c-115 -62 -304 -114 -537 -149 -98 -14 -184 -18 -475 -18 -291 0 -377 4 -475 18 -233 35 -422 87 -537 149 l-58 31 0 126 c0 236 29 388 105 548 176 372 538 609 950 622 22 0 78 -4 125 -9z m-1323 -1444 c294 -209 956 -310 1608 -245 352 35 646 123 818 245 l48 34 96 -26 c503 -137 853 -343 955 -561 66 -140 33 -266 -105 -404 -223 -223 -696 -414 -1262 -509 -658 -111 -1406 -102 -2035 26 -374 75 -749 215 -965 359 -46 30 -114 86 -152 124 -138 138 -171 264 -105 404 83 179 340 355 703 482 93 33 322 103 341 104 5 1 29 -14 55 -33z"
       id="path1736" />
    <path
       d="M1212 2967 c-154 -56 -192 -261 -67 -365 138 -113 345 -16 345 163 0 145 -144 250 -278 202z"
       id="path1738" />
    <path
       d="M3772 2967 c-154 -56 -192 -261 -67 -365 138 -113 345 -16 345 163 0 145 -144 250 -278 202z"
       id="path1740" />
    <path
       d="M2444 2728 c-172 -117 -91 -388 116 -388 207 0 288 271 116 388 -43 28 -56 32 -116 32 -60 0 -73 -4 -116 -32z"
       id="path1742" />
    <path
       d="M4014 1485 c-41 -17 -64 -51 -64 -93 0 -47 533 -1327 568 -1365 20 -21 35 -27 70 -27 68 0 110 49 103 122 -2 16 -528 1285 -551 1327 -20 39 -80 56 -126 36z"
       id="path1744" />
    <path
       d="M1000 1463 c-23 -22 -86 -163 -299 -676 -149 -357 -271 -656 -272 -665 -4 -44 3 -66 30 -93 41 -41 106 -41 143 -1 37 39 568 1318 568 1367 0 85 -105 127 -170 68z"
       id="path1746" />
  </g>
</svg>
